<svg xmlns="http://www.w3.org/2000/svg" xmlns:xlink="http://www.w3.org/1999/xlink" viewBox="0,0,256,256" width="50px" height="50px" fill-rule="evenodd"><g fill="#ffffff" fill-rule="evenodd" stroke="none" stroke-width="1" stroke-linecap="butt" stroke-linejoin="miter" stroke-miterlimit="10" stroke-dasharray="" stroke-dashoffset="0" font-family="none" font-weight="none" font-size="none" text-anchor="none" style="mix-blend-mode: normal"><g transform="scale(5.12,5.12)"><path d="M13,5l3,9v6h2v-6l3,-9h-2l-2,6l-2,-6zM24,9c-1.06641,0 -1.58984,0.16797 -2.24219,0.70313c-0.625,0.52734 -0.79687,0.93359 -0.75781,2.29688v5c0,0.99609 0.16406,1.65234 0.76563,2.23438c0.625,0.58203 1.21484,0.76563 2.23438,0.76563c1.06641,0 1.64844,-0.18359 2.25,-0.76562c0.625,-0.55859 0.75,-1.23828 0.75,-2.23437v-5c0,-0.88281 -0.15625,-1.71875 -0.76172,-2.27734c-0.625,-0.57422 -1.26953,-0.72266 -2.23828,-0.72266zM29,9v9c0,0.97266 0.98047,2 2,2c1.01953,0 1.55859,-0.51172 2,-1v1h2v-11h-2v8c-0.01172,0.68359 -0.81641,1 -1,1c-0.20703,0 -1,-0.04297 -1,-1v-8zM24,11c0.30078,0 1,-0.00391 1,1v5c0,0.96875 -0.67578,1 -1,1c-0.30078,0 -1,-0.01172 -1,-1v-5c0,-0.81641 0.43359,-1 1,-1zM10,22c-3.59375,0 -6,2.38281 -6,6v9.5c0,3.61719 2.40625,6.5 6,6.5h30c3.59375,0 6,-2.38281 6,-6v-10c0,-3.61719 -2.40625,-6 -6,-6zM12,26h6v2h-2v12h-2v-12h-2zM26,26h2v4c0.23047,-0.35937 0.57422,-0.64453 0.90234,-0.80469c0.32031,-0.16406 0.64453,-0.25781 0.97266,-0.25781c0.64844,0 1.15625,0.23438 1.50391,0.67188c0.34766,0.44141 0.62109,1.02734 0.62109,1.89063v6c0,0.74219 -0.25,1.20313 -0.57812,1.59766c-0.32031,0.39453 -0.80078,0.89453 -1.42187,0.90234c-1.05078,0.01172 -1.61328,-0.55078 -2,-1v1h-2zM18,29h2v8c0,0.23047 0.26953,1.00781 1,1c0.8125,-0.00781 0.82031,-0.76562 1,-1v-8h2v11h-2v-1c-0.37109,0.4375 -0.5625,0.57422 -0.98047,0.78125c-0.41406,0.23438 -0.83594,0.21875 -1.22656,0.21875c-0.48437,0 -1.03516,-0.4375 -1.29297,-0.76562c-0.23047,-0.30078 -0.5,-0.60937 -0.5,-1.23437zM36.19922,29c0.94922,0 1.61719,0.20313 2.12109,0.73438c0.51563,0.53125 0.67969,1.15234 0.67969,2.15234v3.11328h-4v1.54688c0,0.55859 0.07422,0.91406 0.21875,1.125c0.13672,0.23047 0.41406,0.33203 0.78125,0.32813c0.40625,-0.00391 0.66406,-0.08594 0.80078,-0.26953c0.14063,-0.16406 0.19922,-0.62891 0.19922,-1.23047v-0.5h2v0.59375c0,1.08984 -0.08594,1.90234 -0.625,2.43359c-0.50781,0.55859 -1.30078,0.81641 -2.33984,0.81641c-0.94922,0 -1.69141,-0.28125 -2.22266,-0.85937c-0.53125,-0.57812 -0.80859,-1.37109 -0.80859,-2.39062v-4.70703c0,-0.90625 0.31641,-1.57812 0.89844,-2.17578c0.46875,-0.48047 1.34766,-0.71094 2.29688,-0.71094zM29,30.5c-0.55078,0 -0.99219,0.49609 -1,1v6c0.00781,0.28906 0.44922,0.5 1,0.5c0.55078,0 1,-0.42578 1,-0.97656v-5.02344c0,-1 -0.44922,-1.5 -1,-1.5zM36,31c-0.55078,0 -0.99219,0.46484 -1,1v1h2v-1c0,-0.61328 -0.44922,-1 -1,-1z"></path></g></g></svg>